<mxfile host="65bd71144e" pages="1">
    <diagram id="6AXBUA2ZQwxcqaj4gc7x" name="ページ1">
        <mxGraphModel dx="443" dy="389" grid="1" gridSize="10" guides="1" tooltips="1" connect="1" arrows="1" fold="1" page="1" pageScale="1" pageWidth="827" pageHeight="1169" background="#ffffff" math="0" shadow="0">
            <root>
                <mxCell id="0"/>
                <mxCell id="1" parent="0"/>
                <mxCell id="3" value="View" style="shape=umlFrame;whiteSpace=wrap;html=1;fontColor=#000000;strokeColor=#006EAF;fillColor=#1ba1e2;" parent="1" vertex="1">
                    <mxGeometry x="40" y="40" width="520" height="120" as="geometry"/>
                </mxCell>
                <mxCell id="4" value="Contoroller" style="shape=umlFrame;whiteSpace=wrap;html=1;fontColor=#000000;strokeColor=#006EAF;fillColor=#1ba1e2;" parent="1" vertex="1">
                    <mxGeometry x="40" y="200" width="520" height="160" as="geometry"/>
                </mxCell>
                <mxCell id="5" value="Service" style="shape=umlFrame;whiteSpace=wrap;html=1;fontColor=#000000;strokeColor=#006EAF;fillColor=#1ba1e2;" parent="1" vertex="1">
                    <mxGeometry x="40" y="400" width="640" height="220" as="geometry"/>
                </mxCell>
                <mxCell id="6" value="Repository" style="shape=umlFrame;whiteSpace=wrap;html=1;fontColor=#000000;strokeColor=#006EAF;fillColor=#1ba1e2;" parent="1" vertex="1">
                    <mxGeometry x="40" y="640" width="520" height="160" as="geometry"/>
                </mxCell>
                <mxCell id="7" value="Database" style="shape=umlFrame;whiteSpace=wrap;html=1;fontColor=#000000;strokeColor=#006EAF;fillColor=#1ba1e2;" parent="1" vertex="1">
                    <mxGeometry x="40" y="840" width="520" height="160" as="geometry"/>
                </mxCell>
                <mxCell id="8" value="UserService" style="swimlane;fontStyle=1;align=center;verticalAlign=top;childLayout=stackLayout;horizontal=1;startSize=26;horizontalStack=0;resizeParent=1;resizeParentMax=0;resizeLast=0;collapsible=1;marginBottom=0;fontColor=#000000;fillColor=#1ba1e2;strokeColor=#006EAF;" vertex="1" parent="1">
                    <mxGeometry x="60" y="440" width="180" height="86" as="geometry">
                        <mxRectangle x="60" y="440" width="100" height="26" as="alternateBounds"/>
                    </mxGeometry>
                </mxCell>
                <mxCell id="9" value="- UserRepostry uRepo" style="text;strokeColor=none;fillColor=none;align=left;verticalAlign=top;spacingLeft=4;spacingRight=4;overflow=hidden;rotatable=0;points=[[0,0.5],[1,0.5]];portConstraint=eastwest;fontColor=#000000;" vertex="1" parent="8">
                    <mxGeometry y="26" width="180" height="26" as="geometry"/>
                </mxCell>
                <mxCell id="10" value="" style="line;strokeWidth=1;fillColor=none;align=left;verticalAlign=middle;spacingTop=-1;spacingLeft=3;spacingRight=3;rotatable=0;labelPosition=right;points=[];portConstraint=eastwest;" vertex="1" parent="8">
                    <mxGeometry y="52" width="180" height="8" as="geometry"/>
                </mxCell>
                <mxCell id="11" value="+ User getUser(String : uid)" style="text;strokeColor=none;fillColor=none;align=left;verticalAlign=top;spacingLeft=4;spacingRight=4;overflow=hidden;rotatable=0;points=[[0,0.5],[1,0.5]];portConstraint=eastwest;fontColor=#000000;" vertex="1" parent="8">
                    <mxGeometry y="60" width="180" height="26" as="geometry"/>
                </mxCell>
                <mxCell id="16" value="ReservationService" style="swimlane;fontStyle=1;align=center;verticalAlign=top;childLayout=stackLayout;horizontal=1;startSize=26;horizontalStack=0;resizeParent=1;resizeParentMax=0;resizeLast=0;collapsible=1;marginBottom=0;fontColor=#000000;fillColor=#1ba1e2;strokeColor=#006EAF;" vertex="1" parent="1">
                    <mxGeometry x="280" y="405" width="360" height="200" as="geometry">
                        <mxRectangle x="60" y="440" width="100" height="26" as="alternateBounds"/>
                    </mxGeometry>
                </mxCell>
                <mxCell id="17" value="- ReservationRepostry rRepo" style="text;strokeColor=none;fillColor=none;align=left;verticalAlign=top;spacingLeft=4;spacingRight=4;overflow=hidden;rotatable=0;points=[[0,0.5],[1,0.5]];portConstraint=eastwest;fontColor=#000000;" vertex="1" parent="16">
                    <mxGeometry y="26" width="360" height="26" as="geometry"/>
                </mxCell>
                <mxCell id="18" value="" style="line;strokeWidth=1;fillColor=none;align=left;verticalAlign=middle;spacingTop=-1;spacingLeft=3;spacingRight=3;rotatable=0;labelPosition=right;points=[];portConstraint=eastwest;" vertex="1" parent="16">
                    <mxGeometry y="52" width="360" height="8" as="geometry"/>
                </mxCell>
                <mxCell id="19" value="+ Reservation createReservation(Reservation reserv)&#10;+ List&lt;Reservation&gt; getReservationByUid(Date date, String uid)&#10;+ int getResevationNumBySlotId(Date date, int slotId)&#10;+ int caluculateRemainingSeatsNum(Date date, int slotId)&#10;+ List&lt;CongestionDto&gt; getCongestionList(Date date)&#10;+ sendNotification(Notification notification)&#10;+ void checkResevationNotification()" style="text;strokeColor=none;fillColor=none;align=left;verticalAlign=top;spacingLeft=4;spacingRight=4;overflow=hidden;rotatable=0;points=[[0,0.5],[1,0.5]];portConstraint=eastwest;fontColor=#000000;" vertex="1" parent="16">
                    <mxGeometry y="60" width="360" height="140" as="geometry"/>
                </mxCell>
            </root>
        </mxGraphModel>
    </diagram>
</mxfile>